<?xml version="1.0" encoding="UTF-8"?>
<!DOCTYPE svg PUBLIC "-//W3C//DTD SVG 1.1//EN" "http://www.w3.org/Graphics/SVG/1.1/DTD/svg11.dtd">
<svg xmlns="http://www.w3.org/2000/svg" version="1.1" width="200px" height="200px" style="shape-rendering:geometricPrecision; text-rendering:geometricPrecision; image-rendering:optimizeQuality; fill-rule:evenodd; clip-rule:evenodd" xmlns:xlink="http://www.w3.org/1999/xlink">
<g><path style="opacity:0.975" fill="#ffb507" d="M 156.5,70.5 C 156.5,69.1667 155.833,68.5 154.5,68.5C 133.652,41.4961 106.985,33.3294 74.5,44C 50.8893,54.7214 37.0559,72.8881 33,98.5C 32.6348,108.181 32.6348,117.848 33,127.5C 31.4122,131.253 28.5789,133.253 24.5,133.5C 16.2363,132.403 11.4029,127.736 10,119.5C 9.33333,113.167 9.33333,106.833 10,100.5C 10.7217,96.7301 12.2217,93.3968 14.5,90.5C 16.0269,90.573 17.0269,89.9063 17.5,88.5C 19.4181,87.1319 21.5848,86.1319 24,85.5C 27.2873,73.5774 33.1207,63.2441 41.5,54.5C 44.1667,52.5 46.5,50.1667 48.5,47.5C 67.3108,30.5143 89.3108,24.3476 114.5,29C 145.4,36.3626 165.567,55.1959 175,85.5C 186.177,89.5004 191.01,97.5004 189.5,109.5C 190.553,118.165 187.886,125.331 181.5,131C 175.091,134.969 169.924,133.803 166,127.5C 169.266,107.319 166.099,88.3186 156.5,70.5 Z"/></g>
<g><path style="opacity:0.461" fill="#ffb607" d="M 48.5,47.5 C 46.5,50.1667 44.1667,52.5 41.5,54.5C 42.8333,51.1667 45.1667,48.8333 48.5,47.5 Z"/></g>
<g><path style="opacity:0.991" fill="#ffb507" d="M 69.5,163.5 C 69.5,162.167 68.8333,161.5 67.5,161.5C 62.6187,159.291 58.6187,155.957 55.5,151.5C 55.5,149.5 54.5,148.5 52.5,148.5C 35.35,123.024 35.1833,97.3571 52,71.5C 53.3712,69.9586 54.8712,68.6253 56.5,67.5C 57.8333,66.8333 58.8333,65.8333 59.5,64.5C 77.477,47.7376 98.1437,43.5709 121.5,52C 148.527,64.8698 161.027,86.3698 159,116.5C 153.35,150.483 133.35,168.816 99,171.5C 88.4565,171.373 78.6232,168.707 69.5,163.5 Z M 64.5,125.5 C 66.6547,125.372 68.6547,125.872 70.5,127C 81.9708,141.119 96.3042,145.119 113.5,139C 119.95,135.044 125.95,130.544 131.5,125.5C 133.948,126.114 135.615,127.614 136.5,130C 124.253,147.44 107.587,153.773 86.5,149C 76.2238,145.216 68.2238,138.716 62.5,129.5C 63.1799,128.14 63.8466,126.807 64.5,125.5 Z"/></g>
<g><path style="opacity:0.5" fill="#ffb607" d="M 59.5,64.5 C 58.8333,65.8333 57.8333,66.8333 56.5,67.5C 56.5,65.5 57.5,64.5 59.5,64.5 Z"/></g>
<g><path style="opacity:0.333" fill="#ffb607" d="M 154.5,68.5 C 155.833,68.5 156.5,69.1667 156.5,70.5C 155.5,70.1667 154.833,69.5 154.5,68.5 Z"/></g>
<g><path style="opacity:0.437" fill="#ffb607" d="M 17.5,88.5 C 17.0269,89.9063 16.0269,90.573 14.5,90.5C 14.9731,89.0937 15.9731,88.427 17.5,88.5 Z"/></g>
<g><path style="opacity:0.375" fill="#ffb607" d="M 52.5,148.5 C 54.5,148.5 55.5,149.5 55.5,151.5C 54.1667,150.833 53.1667,149.833 52.5,148.5 Z"/></g>
<g><path style="opacity:0.333" fill="#ffb607" d="M 67.5,161.5 C 68.8333,161.5 69.5,162.167 69.5,163.5C 68.5,163.167 67.8333,162.5 67.5,161.5 Z"/></g>
</svg>
