<?xml version="1.0" encoding="UTF-8"?>
<!DOCTYPE svg PUBLIC "-//W3C//DTD SVG 1.1//EN" "http://www.w3.org/Graphics/SVG/1.1/DTD/svg11.dtd">
<svg xmlns="http://www.w3.org/2000/svg" version="1.1" width="362px" height="100px" style="shape-rendering:geometricPrecision; text-rendering:geometricPrecision; image-rendering:optimizeQuality; fill-rule:evenodd; clip-rule:evenodd" xmlns:xlink="http://www.w3.org/1999/xlink">
<g><path style="opacity:0.887" fill="#050300" d="M 33.5,21.5 C 30.9455,22.388 28.2788,22.7214 25.5,22.5C 25.5,24.8333 25.5,27.1667 25.5,29.5C 27.7354,29.7947 29.7354,29.4614 31.5,28.5C 32.4511,29.9187 32.7845,31.5853 32.5,33.5C 21.9651,33.3027 20.9651,35.9694 29.5,41.5C 29.4142,42.4959 29.7476,43.3292 30.5,44C 28.8588,45.129 27.8588,46.629 27.5,48.5C 26.8333,48.1667 26.1667,47.8333 25.5,47.5C 25.1663,44.8322 23.8329,42.8322 21.5,41.5C 18.121,44.5507 14.7877,47.5507 11.5,50.5C 8.87866,49.8789 7.21199,48.2123 6.5,45.5C 9.15759,43.1689 11.8243,40.8355 14.5,38.5C 16.9845,37.2601 16.9845,36.2601 14.5,35.5C 12.8333,35.5 11.1667,35.5 9.5,35.5C 9.5,33.1667 9.5,30.8333 9.5,28.5C 10.8734,28.6567 12.2068,28.49 13.5,28C 11.7774,27.4768 10.444,26.4768 9.5,25C 11.8039,20.2258 13.9705,15.3925 16,10.5C 17.6995,11.4061 19.5328,11.7394 21.5,11.5C 21.0338,13.2012 21.0338,14.7012 21.5,16C 25.4862,16.4988 29.4862,16.6655 33.5,16.5C 33.5,18.1667 33.5,19.8333 33.5,21.5 Z"/></g>
<g><path style="opacity:0.878" fill="#050200" d="M 82.5,15.5 C 80.9684,19.7085 78.9684,23.7085 76.5,27.5C 83.7372,29.7491 85.7372,27.5824 82.5,21C 84.4885,20.0617 86.4885,19.2283 88.5,18.5C 89.1667,20.1667 89.8333,21.8333 90.5,23.5C 90.7233,26.7842 91.3899,29.9509 92.5,33C 90.8333,33.8333 89.1667,34.6667 87.5,35.5C 86.6143,34.675 86.281,33.675 86.5,32.5C 81.1536,33.094 75.8202,33.7607 70.5,34.5C 69.4168,34.5394 68.4168,34.8728 67.5,35.5C 66.3652,33.2933 65.6985,30.9599 65.5,28.5C 67.5922,28.4386 69.0922,27.4386 70,25.5C 72.5044,20.4911 75.0044,15.4911 77.5,10.5C 79.1667,11.1667 80.8333,11.8333 82.5,12.5C 83.5624,13.4246 83.5624,14.4246 82.5,15.5 Z"/></g>
<g><path style="opacity:0.883" fill="#040200" d="M 197.5,15.5 C 196.711,15.7828 196.044,16.2828 195.5,17C 197.134,17.4935 198.801,17.6602 200.5,17.5C 203.247,17.1866 205.914,17.52 208.5,18.5C 207.873,19.4168 207.539,20.4168 207.5,21.5C 205.721,23.3435 203.388,24.0102 200.5,23.5C 200.723,25.3417 201.057,27.175 201.5,29C 201.138,30.4343 200.472,31.6009 199.5,32.5C 198.5,32.5 197.5,32.5 196.5,32.5C 196.874,29.0283 195.874,26.0283 193.5,23.5C 191.392,27.4005 189.059,31.0672 186.5,34.5C 184.391,33.6091 182.391,32.4424 180.5,31C 185.18,24.808 188.68,17.9747 191,10.5C 192.785,11.2401 194.618,11.9067 196.5,12.5C 197.386,13.325 197.719,14.325 197.5,15.5 Z"/></g>
<g><path style="opacity:0.911" fill="#060300" d="M 102.5,16.5 C 100.295,22.3682 101.628,23.5349 106.5,20C 107.252,19.3292 107.586,18.4959 107.5,17.5C 109.394,16.9524 111.06,15.9524 112.5,14.5C 114.071,15.9754 115.405,17.642 116.5,19.5C 112.661,24.2602 107.661,27.2602 101.5,28.5C 100.345,31.4459 100.179,34.4459 101,37.5C 102.347,39.4661 103.847,39.7994 105.5,38.5C 107.543,37.4206 108.876,35.754 109.5,33.5C 110.68,31.087 112.68,30.087 115.5,30.5C 116.451,31.9187 116.784,33.5853 116.5,35.5C 113.634,43.1151 107.967,46.4484 99.5,45.5C 96.8333,44.8333 95.1667,43.1667 94.5,40.5C 94.5,35.5 94.5,30.5 94.5,25.5C 94.8333,20.8333 95.1667,16.1667 95.5,11.5C 97.8333,11.5 100.167,11.5 102.5,11.5C 102.5,13.1667 102.5,14.8333 102.5,16.5 Z M 109.5,33.5 C 108.876,35.754 107.543,37.4206 105.5,38.5C 105.183,35.4535 106.516,33.7868 109.5,33.5 Z"/></g>
<g><path style="opacity:0.807" fill="#050300" d="M 138.5,16.5 C 139.242,18.4258 140.242,20.2591 141.5,22C 139.249,22.7475 137.916,24.2475 137.5,26.5C 133.685,23.8405 130.685,20.3405 128.5,16C 129.997,14.3379 131.663,12.8379 133.5,11.5C 135.521,12.8545 137.188,14.5212 138.5,16.5 Z"/></g>
<g><path style="opacity:0.908" fill="#0b0601" d="M 231.5,21.5 C 229.51,22.999 227.177,23.8324 224.5,24C 225.786,26.8316 225.786,29.6649 224.5,32.5C 222.861,32.9258 221.528,32.9258 220.5,32.5C 220.296,29.4824 219.963,26.4824 219.5,23.5C 218.448,23.3505 217.448,23.5172 216.5,24C 215.182,26.8239 213.515,29.3239 211.5,31.5C 210.833,31.5 210.167,31.5 209.5,31.5C 209.158,30.6618 208.492,30.3284 207.5,30.5C 207.5,29.8333 207.167,29.5 206.5,29.5C 207.552,26.8069 208.552,24.1402 209.5,21.5C 210.827,18.5293 212.16,15.5293 213.5,12.5C 215.484,11.2941 217.484,11.2941 219.5,12.5C 220.731,13.6507 220.731,14.8173 219.5,16C 223.418,17.1564 227.418,17.6564 231.5,17.5C 231.5,18.8333 231.5,20.1667 231.5,21.5 Z"/></g>
<g><path style="opacity:0.878" fill="#040200" d="M 313.5,16.5 C 310.855,22.0641 308.188,27.7307 305.5,33.5C 306.365,34.5827 307.365,34.7494 308.5,34C 309.692,32.0876 310.692,30.0876 311.5,28C 312.793,27.51 314.127,27.3433 315.5,27.5C 317.62,28.4033 317.954,29.7367 316.5,31.5C 312.781,37.7699 309.448,44.2699 306.5,51C 309.192,51.4298 311.859,51.2631 314.5,50.5C 315.038,52.1172 315.371,53.7839 315.5,55.5C 310.567,57.0865 305.567,58.4198 300.5,59.5C 299.178,59.33 298.011,59.6634 297,60.5C 296.578,58.6447 296.078,56.8114 295.5,55C 297.868,52.4308 299.868,49.5975 301.5,46.5C 303.96,44.6019 304.96,42.2686 304.5,39.5C 303.261,39.9424 302.261,40.6091 301.5,41.5C 299.833,41.5 298.167,41.5 296.5,41.5C 299.345,31.128 303.345,21.128 308.5,11.5C 311.804,11.6777 313.471,13.3443 313.5,16.5 Z"/></g>
<g><path style="opacity:0.949" fill="#090500" d="M 337.5,16.5 C 336.596,17.209 336.263,18.209 336.5,19.5C 338.5,19.5 340.5,19.5 342.5,19.5C 344.5,19.5 346.5,19.5 348.5,19.5C 348.5,21.1667 348.5,22.8333 348.5,24.5C 343.087,26.0594 337.421,27.0594 331.5,27.5C 329.82,32.3614 327.486,36.8614 324.5,41C 327.859,40.9636 331.193,40.4636 334.5,39.5C 336.552,38.9473 336.885,37.9473 335.5,36.5C 335.311,31.9483 337.311,30.2816 341.5,31.5C 341.833,32.8333 342.167,34.1667 342.5,35.5C 344.486,39.2831 345.319,43.2831 345,47.5C 341.779,50.7282 340.279,50.0615 340.5,45.5C 339.167,45.5 337.833,45.5 336.5,45.5C 335.152,55.4646 334.652,65.4646 335,75.5C 335.667,76.8333 336.333,76.8333 337,75.5C 338.283,71.5116 339.783,67.8449 341.5,64.5C 342.833,64.5 344.167,64.5 345.5,64.5C 345.5,65.8333 345.5,67.1667 345.5,68.5C 344.03,71.9492 342.864,75.6159 342,79.5C 339.508,81.4971 336.675,82.4971 333.5,82.5C 329.842,81.2032 328.176,78.5365 328.5,74.5C 329.036,65.1549 329.703,55.8216 330.5,46.5C 329.178,46.33 328.011,46.6634 327,47.5C 326.635,58.352 323.635,68.352 318,77.5C 315.809,78.8334 313.976,80.5 312.5,82.5C 309.858,82.5123 308.525,81.179 308.5,78.5C 311.142,74.8516 313.809,71.1849 316.5,67.5C 317.038,65.8828 317.371,64.2161 317.5,62.5C 318.167,62.5 318.5,62.1667 318.5,61.5C 319.369,59.283 319.702,56.9496 319.5,54.5C 319.5,54.1667 319.5,53.8333 319.5,53.5C 320.622,51.7116 320.789,49.7116 320,47.5C 319.617,48.056 319.117,48.3893 318.5,48.5C 317.5,48.5 316.5,48.5 315.5,48.5C 314.207,46.6365 314.207,44.6365 315.5,42.5C 318.756,39.9129 320.756,36.5796 321.5,32.5C 321.5,32.1667 321.5,31.8333 321.5,31.5C 323.384,30.6184 324.717,29.1184 325.5,27C 324.207,26.51 322.873,26.3433 321.5,26.5C 319.833,26.5 318.167,26.5 316.5,26.5C 315.99,23.6122 316.656,21.2789 318.5,19.5C 321.85,19.665 325.183,19.4983 328.5,19C 329.435,16.6194 329.768,14.1194 329.5,11.5C 332.167,11.5 334.833,11.5 337.5,11.5C 337.5,13.1667 337.5,14.8333 337.5,16.5 Z M 335.5,36.5 C 336.885,37.9473 336.552,38.9473 334.5,39.5C 334.263,38.209 334.596,37.209 335.5,36.5 Z"/></g>
<g><path style="opacity:0.924" fill="#040200" d="M 283.5,17.5 C 278.387,19.9336 273.054,22.1002 267.5,24C 268.451,24.7175 268.617,25.5509 268,26.5C 265.518,29.9493 262.685,33.116 259.5,36C 266.368,38.2489 271.035,36.0822 273.5,29.5C 274.167,29.5 274.5,29.1667 274.5,28.5C 275.167,28.5 275.833,28.5 276.5,28.5C 278.167,29.5 279.5,30.8333 280.5,32.5C 278.372,35.1303 276.039,37.6303 273.5,40C 269.217,42.6153 265.217,45.6153 261.5,49C 266.358,49.8812 271.024,49.3812 275.5,47.5C 276.167,47.5 276.5,47.1667 276.5,46.5C 274.579,42.9304 275.579,40.5971 279.5,39.5C 280.265,40.6119 281.265,41.2786 282.5,41.5C 282.328,42.4916 282.662,43.1583 283.5,43.5C 284.114,47.5667 285.448,51.4 287.5,55C 285.842,56.6625 283.842,57.4959 281.5,57.5C 281.915,55.0523 280.915,53.7189 278.5,53.5C 275.194,54.1633 271.861,54.6633 268.5,55C 266.983,61.7003 266.15,68.5336 266,75.5C 264.326,81.2546 260.493,83.9213 254.5,83.5C 252.77,82.9744 251.436,81.9744 250.5,80.5C 247.162,74.5092 248.829,72.1758 255.5,73.5C 256.368,75.6246 257.368,75.7913 258.5,74C 259.404,69.8886 259.737,65.722 259.5,61.5C 260.461,59.7354 260.795,57.7354 260.5,55.5C 255.305,55.1795 250.305,55.5128 245.5,56.5C 243.833,56.5 242.167,56.5 240.5,56.5C 240.5,54.1667 240.5,51.8333 240.5,49.5C 243.237,49.5987 245.904,49.2653 248.5,48.5C 261.318,43.4617 261.318,41.795 248.5,43.5C 246.833,43.5 245.167,43.5 243.5,43.5C 243.5,41.1667 243.5,38.8333 243.5,36.5C 246.491,36.8337 248.824,35.8337 250.5,33.5C 254.502,32.0114 257.836,29.5114 260.5,26C 255.88,25.768 251.546,26.6013 247.5,28.5C 246.167,28.5 244.833,28.5 243.5,28.5C 243.007,26.1944 242.674,23.861 242.5,21.5C 255.171,19.899 267.505,16.899 279.5,12.5C 281.54,13.5703 282.874,15.2369 283.5,17.5 Z"/></g>
<g><path style="opacity:0.928" fill="#040200" d="M 56.5,19.5 C 54.8568,28.2884 53.8568,37.2884 53.5,46.5C 48.0735,46.2175 42.7401,46.5509 37.5,47.5C 37.1667,47.5 36.8333,47.5 36.5,47.5C 34.2901,47.106 32.9568,45.7727 32.5,43.5C 33.1098,42.609 33.4431,41.609 33.5,40.5C 34.3686,38.283 34.702,35.9496 34.5,33.5C 34.5,31.5 34.5,29.5 34.5,27.5C 35.4614,25.7354 35.7947,23.7354 35.5,21.5C 35.5,19.1667 35.5,16.8333 35.5,14.5C 41.8421,14.3338 48.1754,14.5005 54.5,15C 56.0368,16.1096 56.7035,17.6096 56.5,19.5 Z M 48.5,26.5 C 48.4963,30.0274 48.1629,33.5274 47.5,37C 47.3917,38.6811 46.7251,39.8478 45.5,40.5C 45.977,35.6273 46.977,30.9606 48.5,26.5 Z"/></g>
<g><path style="opacity:0.923" fill="#030100" d="M 172.5,20.5 C 169.902,39.0166 167.402,57.6833 165,76.5C 161.948,81.4718 157.448,83.4718 151.5,82.5C 147.51,80.8821 145.177,77.8821 144.5,73.5C 146.594,72.4824 148.594,71.4824 150.5,70.5C 150.833,70.5 151.167,70.5 151.5,70.5C 154.446,77.0617 157.112,77.0617 159.5,70.5C 161.317,59.9557 162.317,49.289 162.5,38.5C 163.307,34.9787 163.974,31.312 164.5,27.5C 165.451,26.0813 165.784,24.4147 165.5,22.5C 160.167,22.5 154.833,22.5 149.5,22.5C 147.833,22.5 146.167,22.5 144.5,22.5C 144.5,20.1667 144.5,17.8333 144.5,15.5C 152.84,15.3336 161.173,15.5003 169.5,16C 171.376,16.9184 172.376,18.4184 172.5,20.5 Z M 151.5,70.5 C 154.167,70.5 156.833,70.5 159.5,70.5C 157.112,77.0617 154.446,77.0617 151.5,70.5 Z"/></g>
<g><path style="opacity:0.934" fill="#eba505" d="M 82.5,15.5 C 84.7496,16.1302 86.7496,17.1302 88.5,18.5C 86.4885,19.2283 84.4885,20.0617 82.5,21C 85.7372,27.5824 83.7372,29.7491 76.5,27.5C 78.9684,23.7085 80.9684,19.7085 82.5,15.5 Z"/></g>
<g><path style="opacity:0.941" fill="#eda806" d="M 102.5,16.5 C 104.415,16.2155 106.081,16.5489 107.5,17.5C 107.586,18.4959 107.252,19.3292 106.5,20C 101.628,23.5349 100.295,22.3682 102.5,16.5 Z"/></g>
<g><path style="opacity:0.745" fill="#f5b804" d="M 197.5,15.5 C 198.5,16.1667 199.5,16.8333 200.5,17.5C 198.801,17.6602 197.134,17.4935 195.5,17C 196.044,16.2828 196.711,15.7828 197.5,15.5 Z"/></g>
<g><path style="opacity:0.766" fill="#ffb507" d="M 337.5,16.5 C 339.167,16.5 340.833,16.5 342.5,16.5C 342.5,17.5 342.5,18.5 342.5,19.5C 340.5,19.5 338.5,19.5 336.5,19.5C 336.263,18.209 336.596,17.209 337.5,16.5 Z"/></g>
<g><path style="opacity:0.952" fill="#f4ad06" d="M 283.5,17.5 C 286.69,18.2084 288.19,20.2084 288,23.5C 284.124,25.284 280.291,26.9507 276.5,28.5C 275.833,28.5 275.167,28.5 274.5,28.5C 273.833,28.5 273.5,28.8333 273.5,29.5C 271.035,36.0822 266.368,38.2489 259.5,36C 262.685,33.116 265.518,29.9493 268,26.5C 268.617,25.5509 268.451,24.7175 267.5,24C 273.054,22.1002 278.387,19.9336 283.5,17.5 Z"/></g>
<g><path style="opacity:0.929" fill="#f0ab06" d="M 313.5,16.5 C 315.565,16.953 317.232,17.953 318.5,19.5C 316.656,21.2789 315.99,23.6122 316.5,26.5C 315.833,26.5 315.5,26.8333 315.5,27.5C 314.127,27.3433 312.793,27.51 311.5,28C 310.692,30.0876 309.692,32.0876 308.5,34C 307.365,34.7494 306.365,34.5827 305.5,33.5C 308.188,27.7307 310.855,22.0641 313.5,16.5 Z"/></g>
<g><path style="opacity:0.962" fill="#f0aa06" d="M 56.5,19.5 C 60.7924,19.8086 62.4591,22.1419 61.5,26.5C 60.6447,35.1978 59.6447,43.8645 58.5,52.5C 55.5,52.5 52.5,52.5 49.5,52.5C 45.3577,51.9603 41.3577,51.2937 37.5,50.5C 37.5,49.5 37.5,48.5 37.5,47.5C 42.7401,46.5509 48.0735,46.2175 53.5,46.5C 53.8568,37.2884 54.8568,28.2884 56.5,19.5 Z"/></g>
<g><path style="opacity:1" fill="#694a04" d="M 41.5,21.5 C 44.2869,20.5233 47.2869,20.19 50.5,20.5C 50.7373,21.791 50.404,22.791 49.5,23.5C 47.3647,21.631 44.6981,20.9644 41.5,21.5 Z"/></g>
<g><path style="opacity:0.955" fill="#f8b106" d="M 116.5,19.5 C 118.943,20.4987 120.609,22.332 121.5,25C 119.625,27.0451 117.625,28.8785 115.5,30.5C 112.68,30.087 110.68,31.087 109.5,33.5C 106.516,33.7868 105.183,35.4535 105.5,38.5C 103.847,39.7994 102.347,39.4661 101,37.5C 100.179,34.4459 100.345,31.4459 101.5,28.5C 107.661,27.2602 112.661,24.2602 116.5,19.5 Z"/></g>
<g><path style="opacity:0.91" fill="#f9b106" d="M 138.5,16.5 C 140.861,18.1939 142.861,20.1939 144.5,22.5C 147.403,27.3141 146.069,30.1474 140.5,31C 139.614,29.3853 138.614,27.8853 137.5,26.5C 137.916,24.2475 139.249,22.7475 141.5,22C 140.242,20.2591 139.242,18.4258 138.5,16.5 Z"/></g>
<g><path style="opacity:0.977" fill="#f8b006" d="M 41.5,21.5 C 44.6981,20.9644 47.3647,21.631 49.5,23.5C 49.7373,24.791 49.404,25.791 48.5,26.5C 46.977,30.9606 45.977,35.6273 45.5,40.5C 43.8333,40.5 42.1667,40.5 40.5,40.5C 40.407,34.1373 40.7403,27.8039 41.5,21.5 Z"/></g>
<g><path style="opacity:0.947" fill="#f5ae06" d="M 172.5,20.5 C 176.192,21.034 177.859,23.2007 177.5,27C 175.667,43.4992 173.833,59.9992 172,76.5C 169.89,87.569 163.723,90.7357 153.5,86C 152.177,85.1841 151.511,84.0174 151.5,82.5C 157.448,83.4718 161.948,81.4718 165,76.5C 167.402,57.6833 169.902,39.0166 172.5,20.5 Z"/></g>
<g><path style="opacity:0.87" fill="#e6a605" d="M 17.5,22.5 C 19.3435,24.2789 20.0102,26.6122 19.5,29.5C 17.712,29.7852 16.0453,29.4519 14.5,28.5C 16.0383,26.7567 17.0383,24.7567 17.5,22.5 Z"/></g>
<g><path style="opacity:0.984" fill="#eea906" d="M 33.5,21.5 C 34.1667,21.5 34.8333,21.5 35.5,21.5C 35.7947,23.7354 35.4614,25.7354 34.5,27.5C 33.209,27.2627 32.209,27.596 31.5,28.5C 29.7354,29.4614 27.7354,29.7947 25.5,29.5C 25.5,27.1667 25.5,24.8333 25.5,22.5C 28.2788,22.7214 30.9455,22.388 33.5,21.5 Z"/></g>
<g><path style="opacity:0.97" fill="#f6ae06" d="M 149.5,22.5 C 154.833,22.5 160.167,22.5 165.5,22.5C 165.784,24.4147 165.451,26.0813 164.5,27.5C 159.5,27.5 154.5,27.5 149.5,27.5C 149.5,25.8333 149.5,24.1667 149.5,22.5 Z"/></g>
<g><path style="opacity:0.975" fill="#eda806" d="M 207.5,21.5 C 208.167,21.5 208.833,21.5 209.5,21.5C 208.552,24.1402 207.552,26.8069 206.5,29.5C 206.5,29.8333 206.5,30.1667 206.5,30.5C 204.127,31.203 202.127,32.5363 200.5,34.5C 200.672,33.5084 200.338,32.8417 199.5,32.5C 200.472,31.6009 201.138,30.4343 201.5,29C 201.057,27.175 200.723,25.3417 200.5,23.5C 203.388,24.0102 205.721,23.3435 207.5,21.5 Z"/></g>
<g><path style="opacity:0.939" fill="#fab206" d="M 231.5,21.5 C 233.167,21.5 234.833,21.5 236.5,21.5C 237.495,26.5418 235.495,28.8752 230.5,28.5C 231.291,31.4168 231.291,34.2501 230.5,37C 225.665,39.6832 223.665,38.1832 224.5,32.5C 225.786,29.6649 225.786,26.8316 224.5,24C 227.177,23.8324 229.51,22.999 231.5,21.5 Z"/></g>
<g><path style="opacity:0.928" fill="#f6af06" d="M 196.5,32.5 C 195.149,35.1974 193.315,37.5308 191,39.5C 189.099,38.4645 187.265,37.2978 185.5,36C 186.056,35.6174 186.389,35.1174 186.5,34.5C 189.059,31.0672 191.392,27.4005 193.5,23.5C 195.874,26.0283 196.874,29.0283 196.5,32.5 Z"/></g>
<g><path style="opacity:0.944" fill="#f2ad06" d="M 220.5,32.5 C 219.163,33.3149 218.163,34.4815 217.5,36C 216.552,36.4828 215.552,36.6495 214.5,36.5C 214.158,35.6618 213.492,35.3284 212.5,35.5C 212.5,34.8333 212.167,34.5 211.5,34.5C 210.167,33.5 210.167,32.5 211.5,31.5C 213.515,29.3239 215.182,26.8239 216.5,24C 217.448,23.5172 218.448,23.3505 219.5,23.5C 219.963,26.4824 220.296,29.4824 220.5,32.5 Z"/></g>
<g><path style="opacity:0.97" fill="#eba706" d="M 90.5,23.5 C 92.1993,23.5271 93.5326,24.1938 94.5,25.5C 94.5,30.5 94.5,35.5 94.5,40.5C 92.4862,40.6085 90.8195,39.9418 89.5,38.5C 83.1185,37.9205 76.7852,37.2538 70.5,36.5C 70.5,35.8333 70.5,35.1667 70.5,34.5C 75.8202,33.7607 81.1536,33.094 86.5,32.5C 86.281,33.675 86.6143,34.675 87.5,35.5C 89.1667,34.6667 90.8333,33.8333 92.5,33C 91.3899,29.9509 90.7233,26.7842 90.5,23.5 Z"/></g>
<g><path style="opacity:0.944" fill="#fbb306" d="M 348.5,24.5 C 350.167,24.5 351.833,24.5 353.5,24.5C 353.5,26.8333 353.5,29.1667 353.5,31.5C 349.5,31.5 345.5,31.5 341.5,31.5C 337.311,30.2816 335.311,31.9483 335.5,36.5C 334.596,37.209 334.263,38.209 334.5,39.5C 331.193,40.4636 327.859,40.9636 324.5,41C 327.486,36.8614 329.82,32.3614 331.5,27.5C 337.421,27.0594 343.087,26.0594 348.5,24.5 Z"/></g>
<g><path style="opacity:0.996" fill="#e9a606" d="M 250.5,33.5 C 248.592,32.5144 247.592,30.8477 247.5,28.5C 251.546,26.6013 255.88,25.768 260.5,26C 257.836,29.5114 254.502,32.0114 250.5,33.5 Z"/></g>
<g><path style="opacity:0.947" fill="#eea906" d="M 321.5,26.5 C 322.873,26.3433 324.207,26.51 325.5,27C 324.717,29.1184 323.384,30.6184 321.5,31.5C 320.506,30.0011 320.506,28.3344 321.5,26.5 Z"/></g>
<g><path style="opacity:0.904" fill="#020100" d="M 134.5,32.5 C 131.768,47.9118 129.935,63.5785 129,79.5C 128.768,80.7375 128.268,81.7375 127.5,82.5C 125.396,82.7989 123.396,82.4656 121.5,81.5C 123.762,63.544 125.762,45.544 127.5,27.5C 129.833,27.5 132.167,27.5 134.5,27.5C 134.5,29.1667 134.5,30.8333 134.5,32.5 Z"/></g>
<g><path style="opacity:0.908" fill="#050300" d="M 206.5,30.5 C 206.833,30.5 207.167,30.5 207.5,30.5C 207.842,31.3382 208.508,31.6716 209.5,31.5C 209.5,32.5 209.5,33.5 209.5,34.5C 210.694,38.3633 213.027,41.3633 216.5,43.5C 220.449,47.1462 224.782,50.3129 229.5,53C 230.252,53.6708 230.586,54.5041 230.5,55.5C 228.827,56.343 227.66,57.6763 227,59.5C 223.492,57.4129 220.158,55.0796 217,52.5C 216.5,53 216,53.5 215.5,54C 211.667,54.1667 207.833,54.3333 204,54.5C 199.74,54.4605 195.74,53.7939 192,52.5C 188.855,54.9765 185.688,57.3098 182.5,59.5C 181.425,60.5624 180.425,60.5624 179.5,59.5C 178.071,57.6687 177.571,55.6687 178,53.5C 186.817,48.6822 194.317,42.3489 200.5,34.5C 202.127,32.5363 204.127,31.203 206.5,30.5 Z M 209.5,46.5 C 210.289,46.7828 210.956,47.2828 211.5,48C 210.207,48.49 208.873,48.6567 207.5,48.5C 207.833,47.5 208.5,46.8333 209.5,46.5 Z"/></g>
<g><path style="opacity:0.957" fill="#f3ad06" d="M 316.5,31.5 C 318.216,31.6287 319.883,31.962 321.5,32.5C 320.756,36.5796 318.756,39.9129 315.5,42.5C 314.207,44.6365 314.207,46.6365 315.5,48.5C 315.672,49.4916 315.338,50.1583 314.5,50.5C 311.859,51.2631 309.192,51.4298 306.5,51C 309.448,44.2699 312.781,37.7699 316.5,31.5 Z"/></g>
<g><path style="opacity:0.962" fill="#f3ad06" d="M 134.5,32.5 C 136.167,32.5 137.833,32.5 139.5,32.5C 138.417,43.4932 137.417,54.4932 136.5,65.5C 135.467,72.7953 134.801,80.1286 134.5,87.5C 131.833,87.5 129.167,87.5 126.5,87.5C 126.629,85.7839 126.962,84.1172 127.5,82.5C 128.268,81.7375 128.768,80.7375 129,79.5C 129.935,63.5785 131.768,47.9118 134.5,32.5 Z"/></g>
<g><path style="opacity:0.935" fill="#040200" d="M 139.5,32.5 C 144.844,32.334 150.177,32.5006 155.5,33C 157.376,33.9184 158.376,35.4184 158.5,37.5C 156.615,46.2634 155.615,55.2634 155.5,64.5C 150.637,64.1805 145.97,64.5139 141.5,65.5C 139.833,65.5 138.167,65.5 136.5,65.5C 137.417,54.4932 138.417,43.4932 139.5,32.5 Z"/></g>
<g><path style="opacity:0.92" fill="#df9e06" d="M 32.5,33.5 C 33.1667,33.5 33.8333,33.5 34.5,33.5C 34.702,35.9496 34.3686,38.283 33.5,40.5C 31.901,40.2322 30.5676,40.5655 29.5,41.5C 20.9651,35.9694 21.9651,33.3027 32.5,33.5 Z"/></g>
<g><path style="opacity:0.941" fill="#f0ab06" d="M 280.5,32.5 C 285.84,34.7677 286.507,37.7677 282.5,41.5C 281.265,41.2786 280.265,40.6119 279.5,39.5C 275.579,40.5971 274.579,42.9304 276.5,46.5C 275.833,46.5 275.5,46.8333 275.5,47.5C 271.024,49.3812 266.358,49.8812 261.5,49C 265.217,45.6153 269.217,42.6153 273.5,40C 276.039,37.6303 278.372,35.1303 280.5,32.5 Z"/></g>
<g><path style="opacity:0.627" fill="#eda906" d="M 14.5,35.5 C 16.9845,36.2601 16.9845,37.2601 14.5,38.5C 14.5,37.5 14.5,36.5 14.5,35.5 Z"/></g>
<g><path style="opacity:0.949" fill="#fbb206" d="M 116.5,35.5 C 118.167,35.5 119.833,35.5 121.5,35.5C 121.68,41.6373 119.347,46.4707 114.5,50C 113.207,50.49 111.873,50.6567 110.5,50.5C 109.167,50.5 107.833,50.5 106.5,50.5C 102.892,50.5361 100.559,48.8695 99.5,45.5C 107.967,46.4484 113.634,43.1151 116.5,35.5 Z"/></g>
<g><path style="opacity:0.939" fill="#020100" d="M 70.5,36.5 C 76.7852,37.2538 83.1185,37.9205 89.5,38.5C 89.5,39.5 89.5,40.5 89.5,41.5C 87.8063,53.4239 86.3063,65.4239 85,77.5C 83.6009,81.2736 80.7676,82.9402 76.5,82.5C 76.1667,82.5 75.8333,82.5 75.5,82.5C 73.7827,80.2336 72.4494,77.7336 71.5,75C 73.0249,73.9914 74.6916,73.4914 76.5,73.5C 78.1117,76.908 79.1117,76.2413 79.5,71.5C 80.4511,70.0813 80.7845,68.4147 80.5,66.5C 77.1667,66.5 73.8333,66.5 70.5,66.5C 70.3315,72.034 69.6649,77.3673 68.5,82.5C 66.5,82.5 64.5,82.5 62.5,82.5C 64.3123,67.1892 65.979,51.8558 67.5,36.5C 68.5,36.5 69.5,36.5 70.5,36.5 Z M 79.5,71.5 C 79.1117,76.2413 78.1117,76.908 76.5,73.5C 76.8212,71.9519 77.8212,71.2852 79.5,71.5 Z"/></g>
<g><path style="opacity:0.823" fill="#eaa505" d="M 209.5,34.5 C 210.167,34.5 210.833,34.5 211.5,34.5C 212.167,34.5 212.5,34.8333 212.5,35.5C 212.842,36.3382 213.508,36.6716 214.5,36.5C 214.4,39.1085 215.067,41.4418 216.5,43.5C 213.027,41.3633 210.694,38.3633 209.5,34.5 Z"/></g>
<g><path style="opacity:0.989" fill="#f4ad06" d="M 158.5,37.5 C 159.959,37.4326 161.292,37.7659 162.5,38.5C 162.317,49.289 161.317,59.9557 159.5,70.5C 156.833,70.5 154.167,70.5 151.5,70.5C 151.167,70.5 150.833,70.5 150.5,70.5C 147.102,70.8204 143.768,70.487 140.5,69.5C 141.246,68.2638 141.579,66.9305 141.5,65.5C 145.97,64.5139 150.637,64.1805 155.5,64.5C 155.615,55.2634 156.615,46.2634 158.5,37.5 Z"/></g>
<g><path style="opacity:0.962" fill="#efa906" d="M 145.5,38.5 C 147.5,38.5 149.5,38.5 151.5,38.5C 150.615,45.1433 149.948,51.81 149.5,58.5C 147.5,58.5 145.5,58.5 143.5,58.5C 143.39,51.7095 144.056,45.0428 145.5,38.5 Z"/></g>
<g><path style="opacity:0.868" fill="#da9a05" d="M 301.5,46.5 C 301.5,44.8333 301.5,43.1667 301.5,41.5C 302.261,40.6091 303.261,39.9424 304.5,39.5C 304.96,42.2686 303.96,44.6019 301.5,46.5 Z"/></g>
<g><path style="opacity:0.921" fill="#edaa06" d="M 25.5,47.5 C 24.5987,48.2905 23.9321,49.2905 23.5,50.5C 19.9009,51.3439 16.2343,51.6773 12.5,51.5C 11.8333,51.5 11.5,51.1667 11.5,50.5C 14.7877,47.5507 18.121,44.5507 21.5,41.5C 23.8329,42.8322 25.1663,44.8322 25.5,47.5 Z"/></g>
<g><path style="opacity:0.898" fill="#f9b006" d="M 209.5,46.5 C 208.5,46.8333 207.833,47.5 207.5,48.5C 204.15,48.665 200.817,48.4983 197.5,48C 200.016,45.3167 202.683,42.8167 205.5,40.5C 207.278,42.264 208.611,44.264 209.5,46.5 Z"/></g>
<g><path style="opacity:0.973" fill="#eeaa06" d="M 89.5,41.5 C 92.9478,42.02 94.6145,44.02 94.5,47.5C 93.828,48.2674 92.9947,48.9341 92,49.5C 89.4246,59.8639 89.2579,70.1972 91.5,80.5C 89.8496,87.1005 85.8496,89.2672 79.5,87C 78.1175,85.7292 77.1175,84.2292 76.5,82.5C 80.7676,82.9402 83.6009,81.2736 85,77.5C 86.3063,65.4239 87.8063,53.4239 89.5,41.5 Z"/></g>
<g><path style="opacity:0.921" fill="#e9a806" d="M 29.5,41.5 C 30.5,42.1667 31.5,42.8333 32.5,43.5C 32.9568,45.7727 34.2901,47.106 36.5,47.5C 36.4431,48.609 36.1098,49.609 35.5,50.5C 33.1667,51.8333 30.8333,51.8333 28.5,50.5C 28.6716,49.5084 28.3382,48.8417 27.5,48.5C 27.8588,46.629 28.8588,45.129 30.5,44C 29.7476,43.3292 29.4142,42.4959 29.5,41.5 Z"/></g>
<g><path style="opacity:0.951" fill="#e2a006" d="M 73.5,42.5 C 76.8333,42.5 80.1667,42.5 83.5,42.5C 83.1667,44.5 82.8333,46.5 82.5,48.5C 79.1933,49.0508 75.8599,49.3841 72.5,49.5C 72.448,47.0971 72.7814,44.7638 73.5,42.5 Z"/></g>
<g><path style="opacity:1" fill="#e8a506" d="M 248.5,48.5 C 248.5,46.8333 248.5,45.1667 248.5,43.5C 261.318,41.795 261.318,43.4617 248.5,48.5 Z"/></g>
<g><path style="opacity:0.976" fill="#eea906" d="M 341.5,64.5 C 339.783,67.8449 338.283,71.5116 337,75.5C 336.333,76.8333 335.667,76.8333 335,75.5C 334.652,65.4646 335.152,55.4646 336.5,45.5C 337.833,45.5 339.167,45.5 340.5,45.5C 340.279,50.0615 341.779,50.7282 345,47.5C 345.319,43.2831 344.486,39.2831 342.5,35.5C 343.847,34.8288 345.014,34.8288 346,35.5C 348.135,40.7377 349.968,46.0711 351.5,51.5C 349.974,54.0918 347.641,55.0918 344.5,54.5C 344.762,53.0222 344.429,51.6888 343.5,50.5C 341.886,55.0196 341.22,59.6863 341.5,64.5 Z"/></g>
<g><path style="opacity:0.931" fill="#070400" d="M 94.5,47.5 C 95.8333,47.5 97.1667,47.5 98.5,47.5C 98.5,49.1667 98.5,50.8333 98.5,52.5C 97.3871,53.9464 97.2204,55.6131 98,57.5C 99.4194,56.5399 100.919,55.7065 102.5,55C 103.252,54.3292 103.586,53.4959 103.5,52.5C 105.027,52.573 106.027,51.9063 106.5,50.5C 107.833,50.5 109.167,50.5 110.5,50.5C 110.733,52.0618 111.4,53.3951 112.5,54.5C 110.996,56.8356 108.996,58.669 106.5,60C 102.901,61.3094 99.4009,62.8094 96,64.5C 95.3333,67.8333 95.3333,71.1667 96,74.5C 97.6779,76.5532 99.5112,76.8866 101.5,75.5C 104.112,73.9478 105.445,71.6145 105.5,68.5C 106.287,66.8958 107.62,66.2291 109.5,66.5C 110.5,66.5 111.5,66.5 112.5,66.5C 112.5,68.1667 112.5,69.8333 112.5,71.5C 110.352,80.2781 104.686,83.9447 95.5,82.5C 93.9382,82.2671 92.6049,81.6005 91.5,80.5C 89.2579,70.1972 89.4246,59.8639 92,49.5C 92.9947,48.9341 93.828,48.2674 94.5,47.5 Z M 105.5,68.5 C 105.445,71.6145 104.112,73.9478 101.5,75.5C 101.201,73.396 101.534,71.396 102.5,69.5C 103.417,68.8728 104.417,68.5394 105.5,68.5 Z"/></g>
<g><path style="opacity:0.959" fill="#f3ad06" d="M 328.5,74.5 C 325.899,80.269 321.732,84.6023 316,87.5C 314.225,86.2302 313.058,84.5635 312.5,82.5C 313.976,80.5 315.809,78.8334 318,77.5C 323.635,68.352 326.635,58.352 327,47.5C 328.011,46.6634 329.178,46.33 330.5,46.5C 329.703,55.8216 329.036,65.1549 328.5,74.5 Z"/></g>
<g><path style="opacity:0.929" fill="#de9705" d="M 319.5,53.5 C 319.634,51.7085 319.301,50.0418 318.5,48.5C 319.117,48.3893 319.617,48.056 320,47.5C 320.789,49.7116 320.622,51.7116 319.5,53.5 Z"/></g>
<g><path style="opacity:0.937" fill="#070400" d="M 23.5,50.5 C 25.1667,50.5 26.8333,50.5 28.5,50.5C 30.8333,51.8333 33.1667,51.8333 35.5,50.5C 36.1667,50.5 36.8333,50.5 37.5,50.5C 41.3577,51.2937 45.3577,51.9603 49.5,52.5C 49.5,53.5 49.5,54.5 49.5,55.5C 48.3111,64.1458 47.3111,72.8125 46.5,81.5C 35.8541,82.4987 25.1874,82.832 14.5,82.5C 12.396,82.7989 10.396,82.4656 8.5,81.5C 9.83532,71.4703 11.1687,61.4703 12.5,51.5C 16.2343,51.6773 19.9009,51.3439 23.5,50.5 Z"/></g>
<g><path style="opacity:0.892" fill="#efa906" d="M 98.5,52.5 C 100.167,52.5 101.833,52.5 103.5,52.5C 103.586,53.4959 103.252,54.3292 102.5,55C 100.919,55.7065 99.4194,56.5399 98,57.5C 97.2204,55.6131 97.3871,53.9464 98.5,52.5 Z"/></g>
<g><path style="opacity:0.972" fill="#efa906" d="M 230.5,55.5 C 236.585,57.7792 237.085,61.1125 232,65.5C 228.492,63.4129 225.158,61.0796 222,58.5C 221.617,59.056 221.117,59.3893 220.5,59.5C 209.409,59.2424 198.409,59.2424 187.5,59.5C 187.634,61.2915 187.301,62.9582 186.5,64.5C 185.883,64.6107 185.383,64.944 185,65.5C 183.878,63.5932 183.045,61.5932 182.5,59.5C 185.688,57.3098 188.855,54.9765 192,52.5C 195.74,53.7939 199.74,54.4605 204,54.5C 207.833,54.3333 211.667,54.1667 215.5,54C 216,53.5 216.5,53 217,52.5C 220.158,55.0796 223.492,57.4129 227,59.5C 227.66,57.6763 228.827,56.343 230.5,55.5 Z"/></g>
<g><path style="opacity:0.957" fill="#f4ae06" d="M 283.5,43.5 C 284.496,43.4142 285.329,43.7476 286,44.5C 288.773,49.7128 291.273,55.0461 293.5,60.5C 291.312,62.8704 288.812,63.5371 286,62.5C 285.517,61.552 285.351,60.552 285.5,59.5C 283.379,59.3253 281.379,59.6586 279.5,60.5C 277.343,58.4746 275.009,58.6413 272.5,61C 272.034,62.2988 272.034,63.7988 272.5,65.5C 272.719,71.9773 271.886,78.3106 270,84.5C 266.229,88.7881 261.729,89.6214 256.5,87C 255.177,86.1841 254.511,85.0174 254.5,83.5C 260.493,83.9213 264.326,81.2546 266,75.5C 266.15,68.5336 266.983,61.7003 268.5,55C 271.861,54.6633 275.194,54.1633 278.5,53.5C 280.915,53.7189 281.915,55.0523 281.5,57.5C 283.842,57.4959 285.842,56.6625 287.5,55C 285.448,51.4 284.114,47.5667 283.5,43.5 Z"/></g>
<g><path style="opacity:0.947" fill="#fbb306" d="M 319.5,54.5 C 319.702,56.9496 319.369,59.283 318.5,61.5C 317.833,61.5 317.5,61.8333 317.5,62.5C 315.901,62.2322 314.568,62.5655 313.5,63.5C 312.85,63.1961 312.183,62.8627 311.5,62.5C 309.271,63.5771 306.937,64.2437 304.5,64.5C 303.508,64.3284 302.842,64.6618 302.5,65.5C 302.167,65.5 301.833,65.5 301.5,65.5C 301.167,63.5 300.833,61.5 300.5,59.5C 305.567,58.4198 310.567,57.0865 315.5,55.5C 316.708,54.7659 318.041,54.4326 319.5,54.5 Z"/></g>
<g><path style="opacity:0.95" fill="#fab207" d="M 49.5,55.5 C 51.3904,55.2965 52.8904,55.9632 54,57.5C 54.2015,67.5253 53.7015,77.5253 52.5,87.5C 39.4829,87.8325 26.4829,87.4991 13.5,86.5C 14.2458,85.2638 14.5792,83.9305 14.5,82.5C 25.1874,82.832 35.8541,82.4987 46.5,81.5C 47.3111,72.8125 48.3111,64.1458 49.5,55.5 Z"/></g>
<g><path style="opacity:0.999" fill="#eea906" d="M 71.5,54.5 C 74.8333,54.5 78.1667,54.5 81.5,54.5C 81.5,56.1667 81.5,57.8333 81.5,59.5C 78.2655,60.576 74.9322,61.2427 71.5,61.5C 71.5,59.1667 71.5,56.8333 71.5,54.5 Z"/></g>
<g><path style="opacity:0.957" fill="#f4ad06" d="M 112.5,54.5 C 115.068,55.5737 116.735,57.5737 117.5,60.5C 115.074,62.9407 112.407,64.9407 109.5,66.5C 107.62,66.2291 106.287,66.8958 105.5,68.5C 104.417,68.5394 103.417,68.8728 102.5,69.5C 101.534,71.396 101.201,73.396 101.5,75.5C 99.5112,76.8866 97.6779,76.5532 96,74.5C 95.3333,71.1667 95.3333,67.8333 96,64.5C 99.4009,62.8094 102.901,61.3094 106.5,60C 108.996,58.669 110.996,56.8356 112.5,54.5 Z"/></g>
<g><path style="opacity:0.943" fill="#f3ac06" d="M 259.5,61.5 C 257.5,61.5 255.5,61.5 253.5,61.5C 250.911,59.8427 248.244,59.5094 245.5,60.5C 245.5,59.1667 245.5,57.8333 245.5,56.5C 250.305,55.5128 255.305,55.1795 260.5,55.5C 260.795,57.7354 260.461,59.7354 259.5,61.5 Z"/></g>
<g><path style="opacity:0.952" fill="#feb407" d="M 23.5,63.5 C 21.8333,63.5 20.1667,63.5 18.5,63.5C 18.5,61.8333 18.5,60.1667 18.5,58.5C 26.3159,57.5076 34.3159,57.1743 42.5,57.5C 42.5,59.1667 42.5,60.8333 42.5,62.5C 35.9779,62.1765 29.6446,62.5098 23.5,63.5 Z"/></g>
<g><path style="opacity:0.953" fill="#010100" d="M 220.5,59.5 C 220.833,60.8333 221.167,62.1667 221.5,63.5C 219.85,69.25 219.184,75.25 219.5,81.5C 209.652,81.1729 199.986,81.5062 190.5,82.5C 188.5,82.5 186.5,82.5 184.5,82.5C 185.298,76.5211 185.965,70.5211 186.5,64.5C 187.301,62.9582 187.634,61.2915 187.5,59.5C 198.409,59.2424 209.409,59.2424 220.5,59.5 Z M 213.5,70.5 C 212.962,72.1172 212.629,73.7839 212.5,75.5C 207.833,75.5 203.167,75.5 198.5,75.5C 198.5,73.8333 198.5,72.1667 198.5,70.5C 203.5,70.5 208.5,70.5 213.5,70.5 Z"/></g>
<g><path style="opacity:0.867" fill="#040200" d="M 253.5,61.5 C 253.5,62.1667 253.5,62.8333 253.5,63.5C 249.776,69.5823 245.11,74.9156 239.5,79.5C 237.704,78.2073 236.037,76.7073 234.5,75C 238.767,70.5739 242.433,65.7405 245.5,60.5C 248.244,59.5094 250.911,59.8427 253.5,61.5 Z"/></g>
<g><path style="opacity:0.881" fill="#070400" d="M 279.5,60.5 C 280.11,61.391 280.443,62.391 280.5,63.5C 282.487,67.4734 284.487,71.4734 286.5,75.5C 284.812,76.5213 283.479,77.8546 282.5,79.5C 281.85,79.8039 281.183,80.1373 280.5,80.5C 278.063,75.2886 275.397,70.2886 272.5,65.5C 272.034,63.7988 272.034,62.2988 272.5,61C 275.009,58.6413 277.343,58.4746 279.5,60.5 Z"/></g>
<g><path style="opacity:1" fill="#765404" d="M 18.5,58.5 C 18.5,60.1667 18.5,61.8333 18.5,63.5C 20.1667,63.5 21.8333,63.5 23.5,63.5C 21.7354,64.4614 19.7354,64.7947 17.5,64.5C 17.2053,62.2646 17.5386,60.2646 18.5,58.5 Z"/></g>
<g><path style="opacity:0.884" fill="#f4ad06" d="M 221.5,63.5 C 225.192,64.034 226.859,66.2007 226.5,70C 225.723,75.8286 225.056,81.662 224.5,87.5C 212.833,87.5 201.167,87.5 189.5,87.5C 189.366,85.7085 189.699,84.0418 190.5,82.5C 199.986,81.5062 209.652,81.1729 219.5,81.5C 219.184,75.25 219.85,69.25 221.5,63.5 Z"/></g>
<g><path style="opacity:0.873" fill="#040200" d="M 313.5,63.5 C 313.433,64.9587 313.766,66.2921 314.5,67.5C 309.418,70.7446 304.084,73.4113 298.5,75.5C 297.022,75.762 295.689,75.4287 294.5,74.5C 293.907,72.6183 293.24,70.7849 292.5,69C 295.662,67.9725 298.662,66.8059 301.5,65.5C 301.833,65.5 302.167,65.5 302.5,65.5C 303.492,65.6716 304.158,65.3382 304.5,64.5C 306.937,64.2437 309.271,63.5771 311.5,62.5C 312.183,62.8627 312.85,63.1961 313.5,63.5 Z"/></g>
<g><path style="opacity:1" fill="#453104" d="M 193.5,65.5 C 200.313,64.5088 207.313,64.1755 214.5,64.5C 214.795,66.7354 214.461,68.7354 213.5,70.5C 213.5,68.8333 213.5,67.1667 213.5,65.5C 206.833,65.5 200.167,65.5 193.5,65.5 Z"/></g>
<g><path style="opacity:0.968" fill="#f5af06" d="M 253.5,63.5 C 255.518,64.1746 257.184,65.3413 258.5,67C 257.623,69.2527 256.623,71.4194 255.5,73.5C 248.829,72.1758 247.162,74.5092 250.5,80.5C 248.814,82.0165 246.981,83.3498 245,84.5C 242.684,83.3496 240.85,81.6829 239.5,79.5C 245.11,74.9156 249.776,69.5823 253.5,63.5 Z"/></g>
<g><path style="opacity:0.955" fill="#f9b007" d="M 193.5,65.5 C 200.167,65.5 206.833,65.5 213.5,65.5C 213.5,67.1667 213.5,68.8333 213.5,70.5C 208.5,70.5 203.5,70.5 198.5,70.5C 198.5,72.1667 198.5,73.8333 198.5,75.5C 196.5,75.5 194.5,75.5 192.5,75.5C 192.187,71.9581 192.521,68.6248 193.5,65.5 Z"/></g>
<g><path style="opacity:0.965" fill="#f1ac06" d="M 79.5,71.5 C 77.8212,71.2852 76.8212,71.9519 76.5,73.5C 74.6916,73.4914 73.0249,73.9914 71.5,75C 72.4494,77.7336 73.7827,80.2336 75.5,82.5C 75.7135,84.1439 75.3802,85.6439 74.5,87C 72.1902,87.4966 69.8568,87.6633 67.5,87.5C 67.366,85.7085 67.6993,84.0418 68.5,82.5C 69.6649,77.3673 70.3315,72.034 70.5,66.5C 73.8333,66.5 77.1667,66.5 80.5,66.5C 80.7845,68.4147 80.4511,70.0813 79.5,71.5 Z"/></g>
<g><path style="opacity:0.881" fill="#f9b006" d="M 282.5,79.5 C 283.479,77.8546 284.812,76.5213 286.5,75.5C 284.487,71.4734 282.487,67.4734 280.5,63.5C 281.397,62.4019 282.23,62.4019 283,63.5C 286.692,68.534 289.525,74.034 291.5,80C 287.606,87.0202 284.606,86.8535 282.5,79.5 Z"/></g>
<g><path style="opacity:0.959" fill="#f1ac06" d="M 314.5,67.5 C 315.167,67.5 315.833,67.5 316.5,67.5C 313.809,71.1849 311.142,74.8516 308.5,78.5C 305.624,79.8032 302.624,80.3032 299.5,80C 298.62,78.6439 298.286,77.1439 298.5,75.5C 304.084,73.4113 309.418,70.7446 314.5,67.5 Z"/></g>
<g><path style="opacity:0.926" fill="#fbb306" d="M 345.5,68.5 C 346.919,69.4511 348.585,69.7845 350.5,69.5C 350.653,76.1437 348.653,81.9771 344.5,87C 339.379,89.125 335.712,87.625 333.5,82.5C 336.675,82.4971 339.508,81.4971 342,79.5C 342.864,75.6159 344.03,71.9492 345.5,68.5 Z"/></g>
<g><path style="opacity:0.857" fill="#f4ad07" d="M 16.5,69.5 C 24.8333,69.5 33.1667,69.5 41.5,69.5C 41.7394,71.4672 41.4061,73.3005 40.5,75C 32.4858,75.3896 24.4858,75.8896 16.5,76.5C 16.5,74.1667 16.5,71.8333 16.5,69.5 Z"/></g>
<g><path style="opacity:0.949" fill="#fab106" d="M 112.5,71.5 C 114.167,71.5 115.833,71.5 117.5,71.5C 117.792,85.0548 111.459,90.2215 98.5,87C 96.8588,85.871 95.8588,84.371 95.5,82.5C 104.686,83.9447 110.352,80.2781 112.5,71.5 Z"/></g>
</svg>
